HIERARCHY
ROOT hip
{
  OFFSET 0 0 0
  CHANNELS 6 Xposition Yposition Zposition Zrotation Yrotation Xrotation
  JOINT abdomen
  {
    OFFSET 0 20.6881 -0.73152
    CHANNELS 3 Zrotation Xrotation Yrotation
    JOINT chest
    {
      OFFSET 0 11.7043 -0.48768
      CHANNELS 3 Zrotation Xrotation Yrotation
      JOINT neck
      {
        OFFSET 0 22.1894 -2.19456
        CHANNELS 3 Zrotation Xrotation Yrotation
        JOINT head
        {
          OFFSET -0.24384 7.07133 1.2192
          CHANNELS 3 Zrotation Xrotation Yrotation
          JOINT leftEye
          {
            OFFSET 4.14528 8.04674 8.04672
            CHANNELS 3 Zrotation Xrotation Yrotation
            End Site
            {
              OFFSET 1 0 0
            }
          }
          JOINT rightEye
          {
            OFFSET -3.6576 8.04674 8.04672
            CHANNELS 3 Zrotation Xrotation Yrotation
            End Site
            {
              OFFSET 1 0 0
            }
          }
        }
      }
      JOINT rCollar
      {
        OFFSET -2.68224 19.2634 -4.8768
        CHANNELS 3 Zrotation Xrotation Yrotation
        JOINT rShldr
        {
          OFFSET -8.77824 -1.95073 1.46304
          CHANNELS 3 Zrotation Xrotation Yrotation
          JOINT rForeArm
          {
            OFFSET -28.1742 -1.7115 0.48768
            CHANNELS 3 Zrotation Xrotation Yrotation
            JOINT rHand
            {
              OFFSET -22.5879 0.773209 7.07136
              CHANNELS 3 Zrotation Xrotation Yrotation
              JOINT rThumb1
              {
                OFFSET -1.2192 -0.487915 3.41376
                CHANNELS 3 Zrotation Xrotation Yrotation
                JOINT rThumb2
                {
                  OFFSET -3.37035 -0.52449 3.41376
                  CHANNELS 3 Zrotation Xrotation Yrotation
                  End Site
                  {
                    OFFSET -1.78271 -1.18214 1.43049
                  }
                }
              }
              JOINT rIndex1
              {
                OFFSET -7.75947 0.938293 5.60832
                CHANNELS 3 Zrotation Xrotation Yrotation
                JOINT rIndex2
                {
                  OFFSET -2.54057 -0.884171 1.56538
                  CHANNELS 3 Zrotation Xrotation Yrotation
                  End Site
                  {
                    OFFSET -1.62519 -0.234802 1.16502
                  }
                }
              }
              JOINT rMid1
              {
                OFFSET -8.24714 1.18213 3.41376
                CHANNELS 3 Zrotation Xrotation Yrotation
                JOINT rMid2
                {
                  OFFSET -3.10165 -0.590103 1.0647
                  CHANNELS 3 Zrotation Xrotation Yrotation
                  End Site
                  {
                    OFFSET -2.48547 -0.328903 0.83742
                  }
                }
              }
              JOINT rRing1
              {
                OFFSET -8.82822 0.546677 1.51678
                CHANNELS 3 Zrotation Xrotation Yrotation
                JOINT rRing2
                {
                  OFFSET -2.60934 -0.819778 -0.0198488
                  CHANNELS 3 Zrotation Xrotation Yrotation
                  End Site
                  {
                    OFFSET -2.33842 -0.294052 0.168128
                  }
                }
              }
              JOINT rPinky1
              {
                OFFSET -8.27202 -0.0477905 -0.4584
                CHANNELS 3 Zrotation Xrotation Yrotation
                JOINT rPinky2
                {
                  OFFSET -1.82734 -0.647385 -0.700984
                  CHANNELS 3 Zrotation Xrotation Yrotation
                  End Site
                  {
                    OFFSET -1.69225 -0.51767 -0.607171
                  }
                }
              }
            }
          }
        }
      }
      JOINT lCollar
      {
        OFFSET 2.68224 19.2634 -4.8768
        CHANNELS 3 Zrotation Xrotation Yrotation
        JOINT lShldr
        {
          OFFSET 8.77824 -1.95073 1.46304
          CHANNELS 3 Zrotation Xrotation Yrotation
          JOINT lForeArm
          {
            OFFSET 28.1742 -1.7115 0.48768
            CHANNELS 3 Zrotation Xrotation Yrotation
            JOINT lHand
            {
              OFFSET 22.5879 0.773209 7.07136
              CHANNELS 3 Zrotation Xrotation Yrotation
              JOINT lThumb1
              {
                OFFSET 1.2192 -0.487915 3.41376
                CHANNELS 3 Zrotation Xrotation Yrotation
                JOINT lThumb2
                {
                  OFFSET 3.37035 -0.52449 3.41376
                  CHANNELS 3 Zrotation Xrotation Yrotation
                  End Site
                  {
                    OFFSET 1.78271 -1.18214 1.43049
                  }
                }
              }
              JOINT lIndex1
              {
                OFFSET 7.75947 0.938293 5.60832
                CHANNELS 3 Zrotation Xrotation Yrotation
                JOINT lIndex2
                {
                  OFFSET 2.54057 -0.884171 1.56538
                  CHANNELS 3 Zrotation Xrotation Yrotation
                  End Site
                  {
                    OFFSET 1.62519 -0.234802 1.16502
                  }
                }
              }
              JOINT lMid1
              {
                OFFSET 8.24714 1.18213 3.41376
                CHANNELS 3 Zrotation Xrotation Yrotation
                JOINT lMid2
                {
                  OFFSET 3.10165 -0.590103 1.0647
                  CHANNELS 3 Zrotation Xrotation Yrotation
                  End Site
                  {
                    OFFSET 2.48547 -0.328903 0.83742
                  }
                }
              }
              JOINT lRing1
              {
                OFFSET 8.82822 0.546677 1.51678
                CHANNELS 3 Zrotation Xrotation Yrotation
                JOINT lRing2
                {
                  OFFSET 2.60934 -0.819778 -0.0198488
                  CHANNELS 3 Zrotation Xrotation Yrotation
                  End Site
                  {
                    OFFSET 2.33842 -0.294052 0.168128
                  }
                }
              }
              JOINT lPinky1
              {
                OFFSET 8.27202 -0.0477905 -0.4584
                CHANNELS 3 Zrotation Xrotation Yrotation
                JOINT lPinky2
                {
                  OFFSET 1.82734 -0.647385 -0.700984
                  CHANNELS 3 Zrotation Xrotation Yrotation
                  End Site
                  {
                    OFFSET 1.69225 -0.51767 -0.607171
                  }
                }
              }
            }
          }
        }
      }
    }
  }
  JOINT rButtock
  {
    OFFSET -8.77824 4.35084 1.2192
    CHANNELS 3 Zrotation Xrotation Yrotation
    JOINT rThigh
    {
      OFFSET 0 -1.70687 -2.19456
      CHANNELS 3 Zrotation Xrotation Yrotation
      JOINT rShin
      {
        OFFSET 0 -36.8199 0.73152
        CHANNELS 3 Zrotation Xrotation Yrotation
        JOINT rFoot
        {
          OFFSET 0.73152 -45.1104 -5.12064
          CHANNELS 3 Zrotation Xrotation Yrotation
          End Site
          {
            OFFSET -1.1221 -3.69964 12.103
          }
        }
      }
    }
  }
  JOINT lButtock
  {
    OFFSET 8.77824 4.35084 1.2192
    CHANNELS 3 Zrotation Xrotation Yrotation
    JOINT lThigh
    {
      OFFSET 0 -1.70687 -2.19456
      CHANNELS 3 Zrotation Xrotation Yrotation
      JOINT lShin
      {
        OFFSET 0 -36.8199 0.73152
        CHANNELS 3 Zrotation Xrotation Yrotation
        JOINT lFoot
        {
          OFFSET -0.73152 -45.1104 -5.12064
          CHANNELS 3 Zrotation Xrotation Yrotation
          End Site
          {
            OFFSET 1.1221 -3.69964 12.103
          }
        }
      }
    }
  }
}
MOTION
Frames:	7
Frame Time:	0.00833333
48.6367 80.8594 4.40127 0.7499 -0.2705 -9.417 -1.27655 -0.692423 -4.00102 5.21201 1.81826 -1.04766 -10.6767 14.9572 -14.826 10.6412 -15.7152 -27.2662 -0.0 0.0 0.0 -0.0 0.0 0.0 -1.28616e-14 -1.02602e-14 1.72088e-14 35.4912 -5.37243 72.6882 -9.33452 -3.74619 16.5592 -1.16622 29.1133 4.48895 8.25488e-10 -2.52438e-09 -3.6943e-10 1.41624e-09 -4.43208e-09 -6.58616e-10 8.25489e-10 -2.52437e-09 -3.69449e-10 7.73091 5.47488 0.417314 8.25487e-10 -2.52438e-09 -3.6943e-10 2.90554 0.965183 0.102902 8.25487e-10 -2.52438e-09 -3.69432e-10 10.2786 0.731801 0.0259123 8.25482e-10 -2.52438e-09 -3.69422e-10 2.22167 -0.733487 -0.20892 -1.29657e-14 -1.02652e-14 1.70454e-14 -8.878 0.0692452 -63.0159 13.3499 -6.44163 -24.2549 0.217271 -13.1607 1.88319 -7.70144e-10 -2.90049e-10 2.87993e-10 -1.33388e-09 -4.69598e-10 4.9197e-10 -7.70151e-10 -2.90036e-10 2.88003e-10 -7.73091 5.47488 -0.417314 -7.70143e-10 -2.90049e-10 2.88006e-10 -2.90554 0.965183 -0.102902 -7.70148e-10 -2.90053e-10 2.88004e-10 -10.2786 0.731801 -0.0259123 -7.70145e-10 -2.90052e-10 2.88003e-10 -2.22167 -0.733487 0.20892 -2.03217e-16 0.0 -3.88251e-19 -9.12016 -16.1267 -7.91739 -0.654707 53.267 1.34751 -9.36626 -23.6364 -17.5666 2.03217e-16 0.0 3.88251e-19 13.4521 -18.8669 5.68494 0.702596 53.2315 -1.24663 6.00775 -17.9041 12.2867
48.6409 80.8574 4.40438 0.7712 -0.2808 -9.4007 -1.30799 -0.704317 -4.05647 5.23967 1.86235 -1.06585 -10.6666 14.9422 -14.8241 10.5967 -15.6975 -27.2694 -0.0 0.0 0.0 -0.0 0.0 0.0 -1.51448e-14 -2.18629e-14 2.48605e-14 35.3891 -5.33931 72.7754 -9.35647 -3.75809 16.5997 -1.16478 29.0973 4.486 3.95931e-10 -2.11419e-09 -3.90404e-10 6.7416e-10 -3.67888e-09 -6.84011e-10 3.95932e-10 -2.11418e-09 -3.90424e-10 7.73091 5.47488 0.417314 3.9593e-10 -2.1142e-09 -3.90406e-10 2.90554 0.965183 0.102902 3.95931e-10 -2.11419e-09 -3.90406e-10 10.2786 0.731801 0.0259123 3.95928e-10 -2.11419e-09 -3.90398e-10 2.22167 -0.733487 -0.20892 -1.52205e-14 -2.18707e-14 2.47394e-14 -8.83371 0.0355145 -62.9342 13.4041 -6.48356 -24.3626 0.218569 -13.1991 1.88888 -4.52369e-10 3.65704e-10 4.56499e-11 -7.81906e-10 6.49109e-10 7.5301e-11 -4.52374e-10 3.65715e-10 4.56614e-11 -7.73091 5.47488 -0.417314 -4.52366e-10 3.65698e-10 4.56614e-11 -2.90554 0.965183 -0.102902 -4.52375e-10 3.65704e-10 4.56582e-11 -10.2786 0.731801 -0.0259123 -4.52371e-10 3.65703e-10 4.56545e-11 -2.22167 -0.733487 0.20892 -2.03217e-16 0.0 -3.88251e-19 -9.18502 -16.1296 -7.96964 -0.655714 53.2925 1.3487 -9.35529 -23.6633 -17.5323 2.03217e-16 0.0 3.88251e-19 13.4078 -18.8703 5.66834 0.703154 53.2481 -1.24684 6.0212 -17.9255 12.3025
48.6539 80.8602 4.41383 0.818 -0.2633 -9.4178 -1.33801 -0.72168 -4.1042 5.26384 1.90398 -1.08167 -10.6433 14.9139 -14.8211 10.5316 -15.6689 -27.2724 -0.0 0.0 0.0 -0.0 0.0 0.0 -1.53759e-14 -2.09422e-14 3.24438e-14 35.2951 -5.30717 72.8526 -9.37708 -3.76917 16.6377 -1.16353 29.0833 4.48342 -1.36309e-10 -1.74961e-09 -4.56191e-10 -2.4614e-10 -2.99299e-09 -7.84317e-10 -1.36308e-10 -1.74961e-09 -4.56211e-10 7.73091 5.47488 0.417314 -1.3631e-10 -1.74962e-09 -4.56194e-10 2.90554 0.965183 0.102902 -1.36308e-10 -1.74961e-09 -4.56193e-10 10.2786 0.731801 0.0259123 -1.3631e-10 -1.74961e-09 -4.56187e-10 2.22167 -0.733487 -0.20892 -1.54273e-14 -2.09527e-14 3.2351e-14 -8.803 0.00578514 -62.8598 13.4546 -6.52267 -24.4629 0.219271 -13.22 1.89199 -3.24088e-11 1.11018e-09 -2.4679e-10 -5.30568e-11 1.91718e-09 -4.27224e-10 -3.24124e-11 1.11019e-09 -2.46778e-10 -7.73091 5.47488 -0.417314 -3.24053e-11 1.11017e-09 -2.46781e-10 -2.90554 0.965183 -0.102902 -3.24183e-11 1.11018e-09 -2.46786e-10 -10.2786 0.731801 -0.0259123 -3.24126e-11 1.11018e-09 -2.46792e-10 -2.22167 -0.733487 0.20892 -2.03217e-16 0.0 -3.88251e-19 -9.24691 -16.1428 -8.01868 -0.657007 53.325 1.35024 -9.34521 -23.6922 -17.4984 2.03217e-16 0.0 3.88251e-19 13.367 -18.8817 5.65574 0.703924 53.27 -1.24735 6.03371 -17.9485 12.3163
48.6623 80.8578 4.41658 0.8481 -0.2568 -9.4014 -1.35619 -0.746367 -4.12594 5.27359 1.92862 -1.08907 -10.6098 14.9087 -14.8205 10.4794 -15.6591 -27.2796 -0.0 0.0 0.0 -0.0 0.0 0.0 -1.59776e-14 -1.27164e-14 4.06018e-14 35.2438 -5.28082 72.9041 -9.39044 -3.7762 16.6623 -1.16404 29.0891 4.48447 -4.58426e-10 -1.83591e-09 -5.73603e-10 -8.04883e-10 -3.10553e-09 -9.79019e-10 -4.58425e-10 -1.8359e-09 -5.73623e-10 7.73091 5.47488 0.417314 -4.58427e-10 -1.83592e-09 -5.73607e-10 2.90554 0.965183 0.102902 -4.58425e-10 -1.83591e-09 -5.73606e-10 10.2786 0.731801 0.0259123 -4.58426e-10 -1.8359e-09 -5.736e-10 2.22167 -0.733487 -0.20892 -1.60278e-14 -1.2729e-14 4.05024e-14 -8.78286 -0.0122679 -62.8079 13.4967 -6.55539 -24.5468 0.219338 -13.2222 1.8923 2.06234e-10 1.6404e-09 -4.42612e-10 3.61294e-10 2.82304e-09 -7.64142e-10 2.06231e-10 1.6404e-09 -4.426e-10 -7.73091 5.47488 -0.417314 2.06237e-10 1.64039e-09 -4.42606e-10 -2.90554 0.965183 -0.102902 2.06222e-10 1.6404e-09 -4.42611e-10 -10.2786 0.731801 -0.0259123 2.06229e-10 1.6404e-09 -4.42619e-10 -2.22167 -0.733487 0.20892 -2.03217e-16 0.0 -3.88251e-19 -9.28605 -16.1746 -8.04618 -0.658423 53.3597 1.35179 -9.33839 -23.7091 -17.4762 2.03217e-16 0.0 3.88251e-19 13.345 -18.9049 5.65775 0.704941 53.2972 -1.24849 6.04398 -17.9675 12.3294
48.6751 80.8492 4.41229 0.9077 -0.261 -9.3478 -1.35803 -0.786385 -4.11129 5.26452 1.92487 -1.0845 -10.5633 14.9464 -14.8219 10.4505 -15.689 -27.2895 -0.0 0.0 0.0 -0.0 0.0 0.0 -1.73087e-14 1.37974e-14 5.18735e-14 35.2504 -5.25856 72.92 -9.39398 -3.7776 16.6686 -1.16715 29.1238 4.49088 -4.74002e-10 -2.77125e-09 -8.1533e-10 -8.37235e-10 -4.71179e-09 -1.39606e-09 -4.74e-10 -2.77125e-09 -8.15346e-10 7.73091 5.47488 0.417314 -4.74003e-10 -2.77126e-09 -8.15331e-10 2.90554 0.965183 0.102902 -4.74e-10 -2.77125e-09 -8.15332e-10 10.2786 0.731801 0.0259123 -4.74002e-10 -2.77125e-09 -8.15326e-10 2.22167 -0.733487 -0.20892 -1.7399e-14 1.3783e-14 5.17069e-14 -8.78095 -0.0152449 -62.785 13.5282 -6.57992 -24.6097 0.218298 -13.1917 1.88778 1.76331e-10 1.89485e-09 -5.0777e-10 3.0984e-10 3.26437e-09 -8.77319e-10 1.76329e-10 1.89485e-09 -5.07759e-10 -7.73091 5.47488 -0.417314 1.76334e-10 1.89484e-09 -5.07767e-10 -2.90554 0.965183 -0.102902 1.7632e-10 1.89485e-09 -5.0777e-10 -10.2786 0.731801 -0.0259123 1.76327e-10 1.89485e-09 -5.07778e-10 -2.22167 -0.733487 0.20892 -2.03217e-16 0.0 -3.88251e-19 -9.29246 -16.2416 -8.04271 -0.660101 53.3993 1.3534 -9.33617 -23.7055 -17.4721 2.03217e-16 0.0 3.88251e-19 13.3515 -18.9518 5.68338 0.706387 53.3336 -1.25063 6.05006 -17.9807 12.3398
48.6794 80.8395 4.40969 0.9418 -0.2868 -9.2959 -1.34959 -0.838246 -4.07183 5.24294 1.90299 -1.07184 -10.5034 15.0043 -14.8239 10.4266 -15.7383 -27.3007 -0.0 0.0 0.0 -0.0 0.0 0.0 -1.81729e-14 5.72574e-14 6.51268e-14 35.2946 -5.23877 72.9106 -9.39119 -3.77534 16.6632 -1.17189 29.1765 4.50062 -3.54201e-10 -4.24281e-09 -1.15411e-09 -6.38039e-10 -7.25508e-09 -1.98413e-09 -3.54198e-10 -4.2428e-09 -1.15412e-09 7.73091 5.47488 0.417314 -3.54203e-10 -4.24281e-09 -1.15411e-09 2.90554 0.965183 0.102902 -3.54198e-10 -4.2428e-09 -1.15411e-09 10.2786 0.731801 0.0259123 -3.54201e-10 -4.2428e-09 -1.15411e-09 2.22167 -0.733487 -0.20892 -1.833e-14 5.72416e-14 6.48504e-14 -8.79611 -0.00758545 -62.7821 13.552 -6.59849 -24.657 0.216338 -13.1338 1.87919 3.29595e-11 2.02868e-09 -5.18818e-10 6.14073e-11 3.50266e-09 -8.97895e-10 3.29579e-11 2.02869e-09 -5.18811e-10 -7.73091 5.47488 -0.417314 3.29608e-11 2.02868e-09 -5.18821e-10 -2.90554 0.965183 -0.102902 3.29499e-11 2.02869e-09 -5.1882e-10 -10.2786 0.731801 -0.0259123 3.29572e-11 2.02868e-09 -5.18828e-10 -2.22167 -0.733487 0.20892 -2.03217e-16 0.0 -3.88251e-19 -9.27818 -16.3348 -8.01956 -0.66207 53.445 1.35521 -9.33706 -23.6905 -17.4789 2.03217e-16 0.0 3.88251e-19 13.3764 -19.0167 5.72494 0.708193 53.3778 -1.2535 6.05316 -17.9914 12.3477
48.6601 80.8296 4.41299 0.8868 -0.3525 -9.2645 -1.33632 -0.88656 -4.02227 5.21402 1.88095 -1.05615 -10.4366 15.0547 -14.8286 10.398 -15.7752 -27.3175 -0.0 0.0 0.0 -0.0 0.0 0.0 -1.86598e-14 9.39584e-14 7.54978e-14 35.3575 -5.22636 72.8903 -9.38525 -3.7715 16.652 -1.17714 29.2346 4.51137 -1.87592e-10 -5.5893e-09 -1.44685e-09 -3.57044e-10 -9.5885e-09 -2.49385e-09 -1.87588e-10 -5.58929e-09 -1.44685e-09 7.73091 5.47488 0.417314 -1.87595e-10 -5.5893e-09 -1.44684e-09 2.90554 0.965183 0.102902 -1.87588e-10 -5.58929e-09 -1.44685e-09 10.2786 0.731801 0.0259123 -1.87593e-10 -5.58929e-09 -1.44684e-09 2.22167 -0.733487 -0.20892 -1.88806e-14 9.3942e-14 7.5113e-14 -8.8121 0.00665697 -62.7913 13.5712 -6.61362 -24.6954 0.21439 -13.0757 1.87058 -1.43926e-10 2.06396e-09 -4.94945e-10 -2.45184e-10 3.57199e-09 -8.58315e-10 -1.43927e-10 2.06396e-09 -4.94941e-10 -7.73091 5.47488 -0.417314 -1.43926e-10 2.06396e-09 -4.94953e-10 -2.90554 0.965183 -0.102902 -1.43934e-10 2.06396e-09 -4.94948e-10 -10.2786 0.731801 -0.0259123 -1.43926e-10 2.06396e-09 -4.94955e-10 -2.22167 -0.733487 0.20892 -2.03217e-16 0.0 -3.88251e-19 -9.2565 -16.4232 -7.98946 -0.663999 53.4898 1.357 -9.33921 -23.6762 -17.4878 2.03217e-16 0.0 3.88251e-19 13.4059 -19.0772 5.768 0.710007 53.4222 -1.25647 6.05677 -18.0007 12.3574
